<svg width="115" height="116" viewBox="0 0 115 116" fill="none" xmlns="http://www.w3.org/2000/svg">
<path d="M57.2449 1.44531L114.152 58.3521L57.2449 115.259L0.338135 58.3521L57.2449 1.44531Z" fill="#FB9600"/>
<mask id="path-2-outside-1_31_2160" maskUnits="userSpaceOnUse" x="34.4128" y="42.6824" width="46" height="48" fill="black">
<rect fill="white" x="34.4128" y="42.6824" width="46" height="48"/>
<path fill-rule="evenodd" clip-rule="evenodd" d="M59.1968 43.6824H55.4208L36.4128 89.1224H41.2128L46.1621 77.0483L47.9984 71.3944H47.9968L48.0043 71.3763L48.0081 71.3646H48.0092L57.2768 48.9304L66.4167 71.3646H66.4183L66.4261 71.3877L66.4288 71.3944H66.4284L68.3714 77.1263H68.3695L73.3408 89.1224H78.0768L59.1968 43.6824Z"/>
</mask>
<path fill-rule="evenodd" clip-rule="evenodd" d="M59.1968 43.6824H55.4208L36.4128 89.1224H41.2128L46.1621 77.0483L47.9984 71.3944H47.9968L48.0043 71.3763L48.0081 71.3646H48.0092L57.2768 48.9304L66.4167 71.3646H66.4183L66.4261 71.3877L66.4288 71.3944H66.4284L68.3714 77.1263H68.3695L73.3408 89.1224H78.0768L59.1968 43.6824Z" fill="black"/>
<path d="M55.4208 43.6824V42.6824H54.7552L54.4983 43.2965L55.4208 43.6824ZM59.1968 43.6824L60.1203 43.2987L59.8642 42.6824H59.1968V43.6824ZM36.4128 89.1224L35.4903 88.7365L34.9106 90.1224H36.4128V89.1224ZM41.2128 89.1224V90.1224H41.8837L42.1381 89.5017L41.2128 89.1224ZM46.1621 77.0483L47.0874 77.4276L47.1016 77.3929L47.1132 77.3572L46.1621 77.0483ZM47.9984 71.3944L48.9495 71.7033L49.3746 70.3944H47.9984V71.3944ZM47.9968 71.3944L47.0726 71.0126L46.5018 72.3944H47.9968V71.3944ZM48.0043 71.3763L48.9286 71.7581L48.9434 71.7222L48.9554 71.6852L48.0043 71.3763ZM48.0081 71.3646V70.3646H47.2815L47.057 71.0557L48.0081 71.3646ZM48.0092 71.3646V72.3646H48.678L48.9334 71.7464L48.0092 71.3646ZM57.2768 48.9304L58.2029 48.5531L57.2833 46.2957L56.3526 48.5486L57.2768 48.9304ZM66.4167 71.3646L65.4906 71.7419L65.7443 72.3646H66.4167V71.3646ZM66.4183 71.3646L67.3653 71.0435L67.1352 70.3646H66.4183V71.3646ZM66.4261 71.3877L65.4791 71.7087L65.4887 71.7371L65.5 71.7649L66.4261 71.3877ZM66.4288 71.3944V72.3944H67.916L67.355 71.0171L66.4288 71.3944ZM66.4284 71.3944V70.3944H65.0335L65.4813 71.7154L66.4284 71.3944ZM68.3714 77.1263V78.1263H69.7663L69.3185 76.8052L68.3714 77.1263ZM68.3695 77.1263V76.1263H66.8726L67.4457 77.5091L68.3695 77.1263ZM73.3408 89.1224L72.417 89.5052L72.6728 90.1224H73.3408V89.1224ZM78.0768 89.1224V90.1224H79.5752L79.0003 88.7387L78.0768 89.1224ZM55.4208 44.6824H59.1968V42.6824H55.4208V44.6824ZM37.3354 89.5083L56.3434 44.0683L54.4983 43.2965L35.4903 88.7365L37.3354 89.5083ZM41.2128 88.1224H36.4128V90.1224H41.2128V88.1224ZM45.2369 76.669L40.2876 88.7431L42.1381 89.5017L47.0874 77.4276L45.2369 76.669ZM47.0473 71.0855L45.211 76.7394L47.1132 77.3572L48.9495 71.7033L47.0473 71.0855ZM47.9968 72.3944H47.9984V70.3944H47.9968V72.3944ZM47.0801 70.9945L47.0726 71.0126L48.9211 71.7762L48.9286 71.7581L47.0801 70.9945ZM47.057 71.0557L47.0532 71.0674L48.9554 71.6852L48.9592 71.6735L47.057 71.0557ZM48.0092 70.3646H48.0081V72.3646H48.0092V70.3646ZM56.3526 48.5486L47.0849 70.9828L48.9334 71.7464L58.2011 49.3122L56.3526 48.5486ZM67.3428 70.9873L58.2029 48.5531L56.3508 49.3077L65.4906 71.7419L67.3428 70.9873ZM66.4183 70.3646H66.4167V72.3646H66.4183V70.3646ZM67.3732 71.0666L67.3653 71.0435L65.4712 71.6856L65.4791 71.7087L67.3732 71.0666ZM67.355 71.0171L67.3522 71.0104L65.5 71.7649L65.5027 71.7716L67.355 71.0171ZM66.4284 72.3944H66.4288V70.3944H66.4284V72.3944ZM69.3185 76.8052L67.3755 71.0733L65.4813 71.7154L67.4243 77.4473L69.3185 76.8052ZM68.3695 78.1263H68.3714V76.1263H68.3695V78.1263ZM74.2647 88.7395L69.2933 76.7434L67.4457 77.5091L72.417 89.5052L74.2647 88.7395ZM78.0768 88.1224H73.3408V90.1224H78.0768V88.1224ZM58.2734 44.0661L77.1534 89.5061L79.0003 88.7387L60.1203 43.2987L58.2734 44.0661Z" fill="black" mask="url(#path-2-outside-1_31_2160)"/>
<path d="M56.5849 78.0006C52.5849 78.0006 48.9582 77.2006 45.7049 75.6006C42.4515 74.0006 39.6249 71.8406 37.2249 69.1206C34.8782 66.3473 33.0649 63.2539 31.7849 59.8406C30.5049 56.3739 29.8649 52.8273 29.8649 49.2006C29.8649 45.4139 30.5315 41.8139 31.8649 38.4006C33.2515 34.9339 35.1449 31.8673 37.5449 29.2006C39.9982 26.4806 42.8515 24.3472 46.1049 22.8006C49.3582 21.2006 52.9049 20.4006 56.7449 20.4006C60.7449 20.4006 64.3715 21.2273 67.6249 22.8806C70.8782 24.5339 73.6782 26.7472 76.0249 29.5206C78.3715 32.2939 80.1849 35.3873 81.4649 38.8006C82.7449 42.2139 83.3849 45.7073 83.3849 49.2806C83.3849 53.0673 82.7182 56.6939 81.3849 60.1606C80.0515 63.5739 78.1582 66.6406 75.7049 69.3606C73.3049 72.0273 70.4782 74.1339 67.2249 75.6806C63.9715 77.2273 60.4249 78.0006 56.5849 78.0006ZM37.1449 49.2006C37.1449 52.0806 37.5982 54.8806 38.5049 57.6006C39.4649 60.2673 40.7982 62.6406 42.5049 64.7206C44.2115 66.8006 46.2649 68.4539 48.6649 69.6806C51.0649 70.9073 53.7315 71.5206 56.6649 71.5206C59.7049 71.5206 62.4249 70.8806 64.8249 69.6006C67.2249 68.3206 69.2515 66.6139 70.9049 64.4806C72.6115 62.3473 73.8915 59.9473 74.7449 57.2806C75.6515 54.6139 76.1049 51.9206 76.1049 49.2006C76.1049 46.3206 75.6249 43.5473 74.6649 40.8806C73.7582 38.2139 72.4249 35.8406 70.6649 33.7606C68.9582 31.6273 66.9049 29.9739 64.5049 28.8006C62.1582 27.5739 59.5449 26.9606 56.6649 26.9606C53.6249 26.9606 50.9049 27.6006 48.5049 28.8806C46.1049 30.1073 44.0515 31.7873 42.3449 33.9206C40.6915 36.0539 39.4115 38.4539 38.5049 41.1206C37.5982 43.7339 37.1449 46.4273 37.1449 49.2006Z" fill="black"/>
</svg>
