<svg width="160" height="161" viewBox="0 0 160 161" fill="none" xmlns="http://www.w3.org/2000/svg">
<path d="M80 0.468872L160 80.4689L80 160.469L0 80.4689L80 0.468872Z" fill="#06B7A7"/>
<path d="M93.197 106.281C92.5463 106.281 91.9437 106.115 91.389 105.785C90.8343 105.443 90.4023 105.017 90.093 104.505V106.121H89.117V94.4405H90.205V99.5285C90.5783 98.9632 91.0263 98.5098 91.549 98.1685C92.0717 97.8165 92.6797 97.6405 93.373 97.6405C93.9597 97.6405 94.4823 97.7632 94.941 98.0085C95.4103 98.2538 95.8103 98.5845 96.141 99.0005C96.4717 99.4058 96.7223 99.8698 96.893 100.393C97.0637 100.905 97.149 101.433 97.149 101.977C97.149 102.563 97.0477 103.113 96.845 103.625C96.653 104.137 96.3757 104.595 96.013 105.001C95.6503 105.395 95.229 105.71 94.749 105.945C94.2797 106.169 93.7623 106.281 93.197 106.281ZM92.941 105.321C93.389 105.321 93.805 105.23 94.189 105.049C94.573 104.867 94.9037 104.617 95.181 104.297C95.4583 103.977 95.6717 103.619 95.821 103.225C95.9703 102.819 96.045 102.403 96.045 101.977C96.045 101.39 95.917 100.841 95.661 100.329C95.4157 99.8058 95.069 99.3898 94.621 99.0805C94.1837 98.7605 93.6663 98.6005 93.069 98.6005C92.6423 98.6005 92.2423 98.6965 91.869 98.8885C91.5063 99.0805 91.181 99.3365 90.893 99.6565C90.6157 99.9658 90.3863 100.307 90.205 100.681V103.273C90.2477 103.561 90.3597 103.833 90.541 104.089C90.7223 104.334 90.9463 104.547 91.213 104.729C91.4903 104.91 91.7783 105.054 92.077 105.161C92.3757 105.267 92.6637 105.321 92.941 105.321ZM102.544 106.281C101.947 106.281 101.392 106.169 100.88 105.945C100.379 105.71 99.9413 105.395 99.568 105.001C99.2053 104.595 98.9227 104.137 98.72 103.625C98.5173 103.102 98.416 102.553 98.416 101.977C98.416 101.379 98.5173 100.825 98.72 100.313C98.9227 99.7898 99.2107 99.3312 99.584 98.9365C99.9573 98.5312 100.395 98.2165 100.896 97.9925C101.408 97.7578 101.963 97.6405 102.56 97.6405C103.157 97.6405 103.707 97.7578 104.208 97.9925C104.709 98.2165 105.147 98.5312 105.52 98.9365C105.893 99.3312 106.181 99.7898 106.384 100.313C106.587 100.825 106.688 101.379 106.688 101.977C106.688 102.553 106.587 103.102 106.384 103.625C106.181 104.137 105.893 104.595 105.52 105.001C105.157 105.395 104.72 105.71 104.208 105.945C103.707 106.169 103.152 106.281 102.544 106.281ZM99.52 101.993C99.52 102.611 99.6533 103.177 99.92 103.689C100.197 104.19 100.565 104.59 101.024 104.889C101.483 105.177 101.989 105.321 102.544 105.321C103.099 105.321 103.605 105.171 104.064 104.873C104.523 104.574 104.891 104.169 105.168 103.657C105.445 103.134 105.584 102.569 105.584 101.961C105.584 101.342 105.445 100.777 105.168 100.265C104.891 99.7525 104.523 99.3472 104.064 99.0485C103.605 98.7498 103.099 98.6005 102.544 98.6005C101.989 98.6005 101.483 98.7552 101.024 99.0645C100.576 99.3738 100.213 99.7845 99.936 100.297C99.6587 100.798 99.52 101.363 99.52 101.993ZM108.428 102.681V97.7845H109.516V102.489C109.516 103.438 109.676 104.147 109.996 104.617C110.326 105.086 110.812 105.321 111.452 105.321C111.878 105.321 112.289 105.23 112.684 105.049C113.089 104.857 113.446 104.59 113.756 104.249C114.065 103.897 114.3 103.491 114.46 103.033V97.7845H115.548V104.809C115.548 104.958 115.58 105.07 115.644 105.145C115.708 105.209 115.804 105.246 115.932 105.257V106.121C115.804 106.131 115.702 106.137 115.628 106.137C115.553 106.147 115.484 106.153 115.42 106.153C115.206 106.131 115.02 106.046 114.86 105.897C114.71 105.747 114.63 105.566 114.62 105.353L114.588 104.233C114.225 104.873 113.729 105.374 113.1 105.737C112.481 106.099 111.809 106.281 111.084 106.281C110.209 106.281 109.548 105.977 109.1 105.369C108.652 104.761 108.428 103.865 108.428 102.681ZM122.008 105.721C121.922 105.753 121.789 105.811 121.608 105.897C121.426 105.982 121.208 106.057 120.952 106.121C120.696 106.185 120.418 106.217 120.12 106.217C119.81 106.217 119.517 106.158 119.24 106.041C118.973 105.923 118.76 105.747 118.6 105.513C118.44 105.267 118.36 104.969 118.36 104.617V98.6485H117.208V97.7845H118.36V94.9685H119.448V97.7845H121.368V98.6485H119.448V104.313C119.469 104.611 119.576 104.835 119.768 104.985C119.97 105.134 120.2 105.209 120.456 105.209C120.754 105.209 121.026 105.161 121.272 105.065C121.517 104.958 121.666 104.883 121.72 104.841L122.008 105.721Z" fill="#2C2C2C"/>
<path fill-rule="evenodd" clip-rule="evenodd" d="M69.535 68.4005H65.759L46.751 113.841H51.551L56.5003 101.766L58.3366 96.1125H58.335L58.3425 96.0944L58.3463 96.0827H58.3473L67.615 73.6485L76.7548 96.0827H76.7564L76.7642 96.1058L76.767 96.1125H76.7665L78.7095 101.844H78.7076L83.679 113.841H88.415L69.535 68.4005Z" fill="#2C2C2C"/>
<path d="M96.535 66.8787V61.9827H97.623V66.6867C97.623 67.6361 97.783 68.3454 98.103 68.8147C98.4337 69.2841 98.919 69.5187 99.559 69.5187C99.9857 69.5187 100.396 69.4281 100.791 69.2467C101.196 69.0547 101.554 68.7881 101.863 68.4467C102.172 68.0947 102.407 67.6894 102.567 67.2307V61.9827H103.655V69.0067C103.655 69.1561 103.687 69.2681 103.751 69.3427C103.815 69.4067 103.911 69.4441 104.039 69.4547V70.3187C103.911 70.3294 103.81 70.3347 103.735 70.3347C103.66 70.3454 103.591 70.3507 103.527 70.3507C103.314 70.3294 103.127 70.2441 102.967 70.0947C102.818 69.9454 102.738 69.7641 102.727 69.5507L102.695 68.4307C102.332 69.0707 101.836 69.5721 101.207 69.9347C100.588 70.2974 99.9164 70.4787 99.191 70.4787C98.3164 70.4787 97.655 70.1747 97.207 69.5667C96.759 68.9587 96.535 68.0627 96.535 66.8787ZM110.115 69.9187C110.03 69.9507 109.896 70.0094 109.715 70.0947C109.534 70.1801 109.315 70.2547 109.059 70.3187C108.803 70.3827 108.526 70.4147 108.227 70.4147C107.918 70.4147 107.624 70.3561 107.347 70.2387C107.08 70.1214 106.867 69.9454 106.707 69.7107C106.547 69.4654 106.467 69.1667 106.467 68.8147V62.8467H105.315V61.9827H106.467V59.1667H107.555V61.9827H109.475V62.8467H107.555V68.5107C107.576 68.8094 107.683 69.0334 107.875 69.1827C108.078 69.3321 108.307 69.4067 108.563 69.4067C108.862 69.4067 109.134 69.3587 109.379 69.2627C109.624 69.1561 109.774 69.0814 109.827 69.0387L110.115 69.9187Z" fill="#2C2C2C"/>
<path d="M99.899 77.6387L99.627 79.3347H100.011V80.9827H98.939V79.3347L99.339 77.6387H99.899ZM109.264 89.3187H108.176V84.6627C108.176 83.6814 108.032 82.9667 107.744 82.5187C107.456 82.0601 107.002 81.8307 106.384 81.8307C105.957 81.8307 105.536 81.9374 105.12 82.1507C104.704 82.3534 104.336 82.6361 104.016 82.9987C103.706 83.3507 103.482 83.7561 103.344 84.2147V89.3187H102.256V80.9827H103.248V82.8707C103.472 82.4654 103.765 82.1134 104.128 81.8147C104.49 81.5054 104.901 81.2654 105.36 81.0947C105.818 80.9241 106.293 80.8387 106.784 80.8387C107.242 80.8387 107.632 80.9241 107.952 81.0947C108.272 81.2654 108.528 81.5107 108.72 81.8307C108.912 82.1401 109.05 82.5187 109.136 82.9667C109.221 83.4041 109.264 83.8947 109.264 84.4387V89.3187Z" fill="#2C2C2C"/>
<path d="M67.323 97.7187C63.3763 97.7187 59.7763 96.9187 56.523 95.3187C53.2697 93.6654 50.4697 91.4787 48.123 88.7587C45.7763 86.0387 43.963 82.9721 42.683 79.5587C41.403 76.0921 40.763 72.5454 40.763 68.9187C40.763 65.1321 41.4297 61.5321 42.763 58.1187C44.0963 54.6521 45.963 51.5854 48.363 48.9187C50.8163 46.1987 53.643 44.0654 56.843 42.5187C60.0963 40.9187 63.5897 40.1187 67.323 40.1187C71.2697 40.1187 74.8697 40.9454 78.123 42.5987C81.3763 44.2521 84.1497 46.4654 86.443 49.2387C88.7897 52.0121 90.603 55.1054 91.883 58.5187C93.163 61.9321 93.803 65.3987 93.803 68.9187C93.803 72.7587 93.1363 76.4121 91.803 79.8787C90.4697 83.2921 88.603 86.3587 86.203 89.0787C83.803 91.7454 80.9763 93.8521 77.723 95.3987C74.523 96.9454 71.0563 97.7187 67.323 97.7187ZM43.563 68.9187C43.563 72.3321 44.1497 75.6121 45.323 78.7587C46.4963 81.8521 48.123 84.6254 50.203 87.0787C52.3363 89.5321 54.843 91.4787 57.723 92.9187C60.6563 94.3587 63.8563 95.0787 67.323 95.0787C70.843 95.0787 74.0697 94.3321 77.003 92.8387C79.9363 91.3454 82.443 89.3454 84.523 86.8387C86.603 84.3321 88.203 81.5321 89.323 78.4387C90.443 75.3454 91.003 72.1721 91.003 68.9187C91.003 65.5054 90.4163 62.2521 89.243 59.1587C88.0697 56.0121 86.4163 53.2121 84.283 50.7587C82.1497 48.3054 79.6163 46.3587 76.683 44.9187C73.803 43.4787 70.683 42.7587 67.323 42.7587C63.7497 42.7587 60.4963 43.5054 57.563 44.9987C54.683 46.4921 52.203 48.4921 50.123 50.9987C48.043 53.5054 46.4163 56.3054 45.243 59.3987C44.123 62.4921 43.563 65.6654 43.563 68.9187Z" fill="#2C2C2C"/>
</svg>
