<svg xmlns="http://www.w3.org/2000/svg" width="89" height="81" fill="none" viewBox="0 0 89 81"><path fill="#202020" d="M57.5057 71.818C56.7951 71.818 56.1371 71.6379 55.5314 71.2798C54.9257 70.9087 54.454 70.4464 54.1163 69.8908V71.6444H53.0505V58.9692H54.2386V64.4905C54.6462 63.8771 55.1354 63.3851 55.7061 63.0147C56.2769 62.6327 56.9408 62.4417 57.6978 62.4417C58.3385 62.4417 58.9091 62.5749 59.41 62.8411C59.9224 63.1073 60.3592 63.4661 60.7203 63.9176C61.0814 64.3574 61.3551 64.8609 61.5415 65.4286C61.7279 65.9842 61.821 66.5572 61.821 67.1475C61.821 67.7834 61.7104 68.3803 61.4891 68.9359C61.2794 69.4915 60.9766 69.9885 60.5806 70.429C60.1845 70.8566 59.7245 71.1984 59.2003 71.4534C58.6879 71.6965 58.1229 71.818 57.5057 71.818ZM57.2261 70.7763C57.7153 70.7763 58.1696 70.6775 58.5889 70.4811C59.0082 70.2836 59.3693 70.0123 59.6721 69.6651C59.9749 69.3178 60.2079 68.9294 60.3709 68.5018C60.5339 68.0612 60.6155 67.6098 60.6155 67.1475C60.6155 66.5105 60.4757 65.9148 60.1962 65.3592C59.9283 64.7914 59.5498 64.34 59.0606 64.0044C58.5831 63.6571 58.0181 63.4835 57.3659 63.4835C56.9 63.4835 56.4632 63.5877 56.0556 63.796C55.6595 64.0044 55.3043 64.2822 54.9898 64.6294C54.687 64.9651 54.4365 65.3353 54.2386 65.7412V68.5539C54.2852 68.8664 54.4075 69.1616 54.6055 69.4394C54.8034 69.7052 55.048 69.9364 55.3392 70.1339C55.642 70.3303 55.9565 70.4866 56.2827 70.6027C56.6088 70.7177 56.9233 70.7763 57.2261 70.7763ZM67.712 71.818C67.0601 71.818 66.4541 71.6965 65.895 71.4534C65.348 71.1984 64.87 70.8566 64.4624 70.429C64.0664 69.9885 63.7578 69.4915 63.5364 68.9359C63.3151 68.3683 63.2045 67.7726 63.2045 67.1475C63.2045 66.4986 63.3151 65.8974 63.5364 65.3418C63.7578 64.7741 64.0723 64.2764 64.4799 63.8481C64.8875 63.4083 65.3654 63.0668 65.9125 62.8237C66.4716 62.569 67.0776 62.4417 67.7295 62.4417C68.3814 62.4417 68.9819 62.569 69.529 62.8237C70.0761 63.0668 70.5543 63.4083 70.9616 63.8481C71.3689 64.2764 71.6834 64.7741 71.9051 65.3418C72.1267 65.8974 72.237 66.4986 72.237 67.1475C72.237 67.7726 72.1267 68.3683 71.9051 68.9359C71.6834 69.4915 71.3689 69.9885 70.9616 70.429C70.5652 70.8566 70.0881 71.1984 69.529 71.4534C68.9819 71.6965 68.3759 71.818 67.712 71.818ZM64.41 67.1649C64.41 67.8355 64.5555 68.4497 64.8468 69.0053C65.1492 69.549 65.5511 69.983 66.0523 70.3075C66.5535 70.62 67.106 70.7763 67.712 70.7763C68.318 70.7763 68.8706 70.6135 69.3718 70.2901C69.873 69.9657 70.2748 69.5262 70.5773 68.9706C70.8797 68.4031 71.0315 67.7899 71.0315 67.1302C71.0315 66.4585 70.8797 65.8453 70.5773 65.2897C70.2748 64.7336 69.873 64.2938 69.3718 63.9696C68.8706 63.6455 68.318 63.4835 67.712 63.4835C67.106 63.4835 66.5535 63.6514 66.0523 63.987C65.5631 64.3226 65.1667 64.7683 64.8642 65.3245C64.5614 65.8681 64.41 66.4812 64.41 67.1649ZM74.137 67.9115V62.598H75.325V67.7031C75.325 68.7329 75.4997 69.5023 75.8491 70.0123C76.2095 70.5213 76.7402 70.7763 77.439 70.7763C77.9042 70.7763 78.353 70.6775 78.7843 70.4811C79.2265 70.2728 79.6163 69.983 79.9548 69.613C80.2922 69.231 80.5489 68.7905 80.7236 68.2935V62.598H81.9116V70.2207C81.9116 70.3824 81.9465 70.5039 82.0164 70.5853C82.0863 70.6548 82.1911 70.6949 82.3309 70.7068V71.6444C82.1911 71.6553 82.0798 71.6618 81.9989 71.6618C81.9171 71.6726 81.8417 71.6791 81.7718 71.6791C81.5382 71.6553 81.3351 71.563 81.1603 71.4013C80.9966 71.2386 80.9092 71.0422 80.8983 70.811L80.8633 69.5956C80.467 70.2901 79.9254 70.8338 79.2385 71.2277C78.5626 71.6205 77.8288 71.818 77.0372 71.818C76.0817 71.818 75.36 71.4882 74.8708 70.8284C74.3816 70.1686 74.137 69.1963 74.137 67.9115ZM88.9655 71.2104C88.8716 71.2451 88.7264 71.308 88.5288 71.4013C88.33 71.4936 88.092 71.575 87.8124 71.6444C87.5329 71.7139 87.2293 71.7486 86.9039 71.7486C86.5654 71.7486 86.2455 71.6846 85.943 71.5576C85.6515 71.4296 85.4189 71.2386 85.2442 70.9846C85.0695 70.7177 84.9821 70.3943 84.9821 70.0123V63.5356H83.7242V62.598H84.9821V59.5422H86.1702V62.598H88.2667V63.5356H86.1702V69.6825C86.1931 70.0058 86.3099 70.2489 86.5196 70.4117C86.7402 70.5734 86.9913 70.6548 87.2708 70.6548C87.5962 70.6548 87.8932 70.6027 88.1619 70.4985C88.4294 70.3824 88.5921 70.301 88.651 70.2554L88.9655 71.2104Z"/><path fill="#202020" fill-rule="evenodd" d="M31.6681 30.7114H27.5449L6.78931 80.0215H12.0306L17.435 66.9182L19.4401 60.7833H19.4383L19.4465 60.7637L19.4507 60.751H19.4518L29.5715 36.4063L39.5517 60.751H39.5534L39.5619 60.776L39.565 60.7833L41.6861 67.0029H41.684L47.1125 80.0215H52.2839L31.6681 30.7114Z" clip-rule="evenodd"/><path fill="#202020" d="M63.3345 29.0604V23.7475H64.5225V28.852C64.5225 29.8823 64.6972 30.652 65.0466 31.1612C65.4077 31.6706 65.9377 31.9252 66.6365 31.9252C67.1024 31.9252 67.5504 31.8269 67.9818 31.63C68.424 31.4217 68.8149 31.1324 69.1523 30.7619C69.4897 30.3799 69.7463 29.9401 69.9211 29.4424V23.7475H71.1091V31.3696C71.1091 31.5317 71.144 31.6533 71.2139 31.7342C71.2838 31.8037 71.3886 31.8442 71.5284 31.8557V32.7933C71.3886 32.8049 71.2783 32.8107 71.1964 32.8107C71.1145 32.8223 71.0392 32.8281 70.9693 32.8281C70.7367 32.8049 70.5325 32.7124 70.3578 32.5503C70.1951 32.3882 70.1078 32.1915 70.0958 31.9599L70.0608 30.7446C69.6644 31.4391 69.1228 31.9831 68.436 32.3766C67.7601 32.7702 67.0268 32.967 66.2347 32.967C65.2797 32.967 64.5574 32.6371 64.0683 31.9773C63.5791 31.3175 63.3345 30.3452 63.3345 29.0604ZM78.163 32.3593C78.0702 32.394 77.9239 32.4577 77.7262 32.5503C77.5286 32.6429 77.2895 32.7239 77.0099 32.7933C76.7304 32.8628 76.4279 32.8975 76.1014 32.8975C75.764 32.8975 75.443 32.8339 75.1405 32.7065C74.849 32.5792 74.6164 32.3882 74.4417 32.1336C74.267 31.8674 74.1796 31.5432 74.1796 31.1612V24.685H72.9217V23.7475H74.1796V20.6917H75.3676V23.7475H77.4642V24.685H75.3676V30.8314C75.3906 31.1555 75.5074 31.3986 75.7171 31.5606C75.9387 31.7227 76.1888 31.8037 76.4683 31.8037C76.7948 31.8037 77.0918 31.7516 77.3593 31.6474C77.6269 31.5317 77.7907 31.4507 77.8485 31.4043L78.163 32.3593Z"/><path fill="#202020" d="M64.8237 40.7368L64.5266 42.5772H64.9459V44.3656H63.7754V42.5772L64.2122 40.7368H64.8237ZM75.0497 53.4115H73.8616V48.359C73.8616 47.2941 73.7044 46.5185 73.3899 46.0324C73.0754 45.5347 72.5797 45.2858 71.9049 45.2858C71.4386 45.2858 70.9789 45.4016 70.5247 45.633C70.0704 45.853 69.6686 46.1598 69.3192 46.5533C68.9807 46.9352 68.7361 47.3752 68.5854 47.8728V53.4115H67.3973V44.3656H68.4806V46.4144C68.7252 45.9745 69.0451 45.5926 69.4415 45.2684C69.8367 44.9328 70.2855 44.6724 70.7867 44.4871C71.2868 44.302 71.8055 44.2093 72.3417 44.2093C72.8418 44.2093 73.2676 44.302 73.617 44.4871C73.9665 44.6724 74.246 44.9385 74.4557 45.2858C74.6653 45.6215 74.816 46.0324 74.9099 46.5185C75.0027 46.9932 75.0497 47.5256 75.0497 48.1159V53.4115Z"/><path fill="#202020" d="M29.2529 62.5266C24.9433 62.5266 21.0124 61.6584 17.4599 59.9222C13.9075 58.1281 10.8501 55.7552 8.28765 52.8035C5.7252 49.8519 3.74518 46.5242 2.3475 42.8201C0.949816 39.0583 0.250977 35.2096 0.250977 31.274C0.250977 27.165 0.978973 23.2584 2.43486 19.5543C3.89074 15.7925 5.92906 12.4647 8.54972 9.57087C11.2286 6.61924 14.3152 4.30428 17.8094 2.62586C21.3618 0.889612 25.1764 0.0214844 29.2529 0.0214844C33.5625 0.0214844 37.4934 0.918588 41.0458 2.71268C44.5983 4.50688 47.6266 6.90866 50.1308 9.91812C52.6932 12.9277 54.6733 16.2844 56.0709 19.9884C57.4686 23.6925 58.1675 27.4543 58.1675 31.274C58.1675 35.441 57.4395 39.4055 55.9836 43.1673C54.5277 46.8714 52.4894 50.1992 49.8687 53.1508C47.2481 56.0446 44.1615 58.3307 40.6091 60.009C37.1149 61.6874 33.3294 62.5266 29.2529 62.5266ZM3.30841 31.274C3.30841 34.9781 3.94905 38.5374 5.23022 41.952C6.5114 45.3088 8.28765 48.3183 10.5589 50.9805C12.8883 53.6428 15.6255 55.7552 18.7703 57.3178C21.9733 58.8804 25.4675 59.6617 29.2529 59.6617C33.0965 59.6617 36.6199 58.8516 39.8229 57.231C43.0259 55.6105 45.763 53.4402 48.0343 50.72C50.3055 48 52.0526 44.9615 53.2756 41.6047C54.4985 38.248 55.11 34.8045 55.11 31.274C55.11 27.5701 54.4694 24.0397 53.1882 20.6829C51.907 17.2683 50.1016 14.2299 47.7722 11.5676C45.4428 8.90535 42.6764 6.79287 39.4734 5.23024C36.3287 3.66762 32.9218 2.8863 29.2529 2.8863C25.3511 2.8863 21.7985 3.69659 18.5956 5.31705C15.4508 6.93763 12.7428 9.10794 10.4715 11.828C8.2003 14.5482 6.42404 17.5866 5.14287 20.9433C3.91989 24.3001 3.30841 27.7437 3.30841 31.274Z"/></svg>