<svg xmlns="http://www.w3.org/2000/svg" width="35" height="46" fill="none" viewBox="0 0 35 46"><path fill="#2C2C2C" fill-rule="evenodd" d="M18.896 17.6638H16.536L4.65601 45.8877H7.65601L10.7493 38.3877L11.897 34.8762H11.896L11.9007 34.865L11.9031 34.8577H11.9037L17.696 20.9234L23.4084 34.8577H23.4094L23.4143 34.8721L23.416 34.8762L24.6301 38.4362H24.6289L27.736 45.8877H30.696L18.896 17.6638Z" clip-rule="evenodd"/><path fill="#2C2C2C" d="M17.5136 35.8741C15.0469 35.8741 12.7969 35.3772 10.7636 34.3834C8.73026 33.3565 6.98026 31.9983 5.51357 30.3088C4.04689 28.6194 2.91357 26.7147 2.11357 24.5946C1.31357 22.4414 0.913574 20.2385 0.913574 17.9859C0.913574 15.6339 1.33026 13.3979 2.16357 11.2778C2.99689 9.12461 4.16357 7.21983 5.66357 5.5635C7.19689 3.87406 8.96357 2.54902 10.9636 1.58834C12.9969 0.594552 15.1803 0.0976562 17.5136 0.0976562C19.9803 0.0976562 22.2303 0.611137 24.2636 1.63803C26.2969 2.66499 28.0303 4.03971 29.4636 5.76225C30.9303 7.48486 32.0636 9.40617 32.8636 11.5262C33.6636 13.6464 34.0636 15.7995 34.0636 17.9859C34.0636 20.3709 33.6469 22.6401 32.8136 24.7933C31.9803 26.9134 30.8136 28.8182 29.3136 30.5076C27.8136 32.1639 26.0469 33.4724 24.0136 34.4331C22.0136 35.3937 19.8469 35.8741 17.5136 35.8741ZM2.66357 17.9859C2.66357 20.106 3.03026 22.1432 3.76358 24.0977C4.49689 26.019 5.51357 27.7416 6.81357 29.2654C8.14689 30.7892 9.71357 31.9983 11.5136 32.8927C13.3469 33.7871 15.3469 34.2343 17.5136 34.2343C19.7136 34.2343 21.7303 33.7706 23.5636 32.843C25.3969 31.9155 26.9636 30.6732 28.2636 29.1163C29.5636 27.5594 30.5636 25.8203 31.2636 23.8989C31.9636 21.9776 32.3136 20.0066 32.3136 17.9859C32.3136 15.8658 31.9469 13.8451 31.2136 11.9237C30.4803 9.96933 29.4469 8.2302 28.1136 6.70635C26.7803 5.18257 25.1969 3.97343 23.3636 3.07902C21.5636 2.18461 19.6136 1.73741 17.5136 1.73741C15.2803 1.73741 13.2469 2.2012 11.4136 3.12871C9.61357 4.05629 8.06357 5.29853 6.76357 6.85542C5.46357 8.41238 4.44689 10.1515 3.71357 12.0728C3.01357 13.9942 2.66357 15.9652 2.66357 17.9859Z"/></svg>