<svg width="62" height="95" viewBox="0 0 62 95" fill="none" xmlns="http://www.w3.org/2000/svg">
<path fill-rule="evenodd" clip-rule="evenodd" d="M32.9495 46.7898H29.1735L10.1655 92.2298H14.9655L19.9148 80.1557L21.7511 74.5018H21.7495L21.757 74.4837L21.7608 74.472H21.7618L31.0295 52.0378L40.1694 74.472H40.171L40.1788 74.4951L40.1815 74.5018H40.1811L42.1241 80.2337H42.1222L47.0935 92.2298H51.8295L32.9495 46.7898Z" fill="#2C2C2C"/>
<path d="M30.7376 76.108C26.7909 76.108 23.1909 75.308 19.9376 73.708C16.6842 72.0547 13.8842 69.868 11.5376 67.148C9.19089 64.428 7.37756 61.3613 6.09756 57.948C4.81756 54.4813 4.17756 50.9347 4.17756 47.308C4.17756 43.5213 4.84423 39.9213 6.17756 36.508C7.51089 33.0413 9.37756 29.9747 11.7776 27.308C14.2309 24.588 17.0576 22.4547 20.2576 20.908C23.5109 19.308 27.0042 18.508 30.7376 18.508C34.6842 18.508 38.2842 19.3347 41.5376 20.988C44.7909 22.6413 47.5642 24.8547 49.8576 27.628C52.2042 30.4013 54.0176 33.4947 55.2976 36.908C56.5776 40.3213 57.2176 43.788 57.2176 47.308C57.2176 51.148 56.5509 54.8013 55.2176 58.268C53.8842 61.6813 52.0176 64.748 49.6176 67.468C47.2176 70.1347 44.3909 72.2413 41.1376 73.788C37.9376 75.3347 34.4709 76.108 30.7376 76.108ZM6.97756 47.308C6.97756 50.7213 7.56423 54.0013 8.73756 57.148C9.91089 60.2413 11.5376 63.0147 13.6176 65.468C15.7509 67.9213 18.2576 69.868 21.1376 71.308C24.0709 72.748 27.2709 73.468 30.7376 73.468C34.2576 73.468 37.4842 72.7213 40.4176 71.228C43.3509 69.7347 45.8576 67.7347 47.9376 65.228C50.0176 62.7213 51.6176 59.9213 52.7376 56.828C53.8576 53.7347 54.4176 50.5613 54.4176 47.308C54.4176 43.8947 53.8309 40.6413 52.6576 37.548C51.4842 34.4013 49.8309 31.6013 47.6976 29.148C45.5642 26.6947 43.0309 24.748 40.0976 23.308C37.2176 21.868 34.0976 21.148 30.7376 21.148C27.1642 21.148 23.9109 21.8947 20.9776 23.388C18.0976 24.8813 15.6176 26.8813 13.5376 29.388C11.4576 31.8947 9.83089 34.6947 8.65756 37.788C7.53756 40.8813 6.97756 44.0547 6.97756 47.308Z" fill="#2C2C2C"/>
</svg>
