<svg width="161" height="161" viewBox="0 0 161 161" fill="none" xmlns="http://www.w3.org/2000/svg">
<path d="M80.1636 0.468872L160.164 80.4689L80.1636 160.469L0.163574 80.4689L80.1636 0.468872Z" fill="#FB9600"/>
<path d="M93.3606 106.281C92.7099 106.281 92.1072 106.115 91.5526 105.785C90.9979 105.443 90.5659 105.017 90.2566 104.505V106.121H89.2806V94.4405H90.3686V99.5285C90.7419 98.9632 91.1899 98.5098 91.7126 98.1685C92.2352 97.8165 92.8432 97.6405 93.5366 97.6405C94.1232 97.6405 94.6459 97.7632 95.1046 98.0085C95.5739 98.2538 95.9739 98.5845 96.3046 99.0005C96.6352 99.4058 96.8859 99.8698 97.0566 100.393C97.2272 100.905 97.3126 101.433 97.3126 101.977C97.3126 102.563 97.2112 103.113 97.0086 103.625C96.8166 104.137 96.5392 104.595 96.1766 105.001C95.8139 105.395 95.3926 105.71 94.9126 105.945C94.4432 106.169 93.9259 106.281 93.3606 106.281ZM93.1046 105.321C93.5526 105.321 93.9686 105.23 94.3526 105.049C94.7366 104.867 95.0672 104.617 95.3446 104.297C95.6219 103.977 95.8352 103.619 95.9846 103.225C96.1339 102.819 96.2086 102.403 96.2086 101.977C96.2086 101.39 96.0806 100.841 95.8246 100.329C95.5792 99.8058 95.2326 99.3898 94.7846 99.0805C94.3472 98.7605 93.8299 98.6005 93.2326 98.6005C92.8059 98.6005 92.4059 98.6965 92.0326 98.8885C91.6699 99.0805 91.3446 99.3365 91.0566 99.6565C90.7792 99.9658 90.5499 100.307 90.3686 100.681V103.273C90.4112 103.561 90.5232 103.833 90.7046 104.089C90.8859 104.334 91.1099 104.547 91.3766 104.729C91.6539 104.91 91.9419 105.054 92.2406 105.161C92.5392 105.267 92.8272 105.321 93.1046 105.321ZM102.708 106.281C102.11 106.281 101.556 106.169 101.044 105.945C100.542 105.71 100.105 105.395 99.7316 105.001C99.3689 104.595 99.0862 104.137 98.8836 103.625C98.6809 103.102 98.5796 102.553 98.5796 101.977C98.5796 101.379 98.6809 100.825 98.8836 100.313C99.0862 99.7898 99.3742 99.3312 99.7476 98.9365C100.121 98.5312 100.558 98.2165 101.06 97.9925C101.572 97.7578 102.126 97.6405 102.724 97.6405C103.321 97.6405 103.87 97.7578 104.372 97.9925C104.873 98.2165 105.31 98.5312 105.684 98.9365C106.057 99.3312 106.345 99.7898 106.548 100.313C106.75 100.825 106.852 101.379 106.852 101.977C106.852 102.553 106.75 103.102 106.548 103.625C106.345 104.137 106.057 104.595 105.684 105.001C105.321 105.395 104.884 105.71 104.372 105.945C103.87 106.169 103.316 106.281 102.708 106.281ZM99.6836 101.993C99.6836 102.611 99.8169 103.177 100.084 103.689C100.361 104.19 100.729 104.59 101.188 104.889C101.646 105.177 102.153 105.321 102.708 105.321C103.262 105.321 103.769 105.171 104.228 104.873C104.686 104.574 105.054 104.169 105.332 103.657C105.609 103.134 105.748 102.569 105.748 101.961C105.748 101.342 105.609 100.777 105.332 100.265C105.054 99.7525 104.686 99.3472 104.228 99.0485C103.769 98.7498 103.262 98.6005 102.708 98.6005C102.153 98.6005 101.646 98.7552 101.188 99.0645C100.74 99.3738 100.377 99.7845 100.1 100.297C99.8222 100.798 99.6836 101.363 99.6836 101.993ZM108.591 102.681V97.7845H109.679V102.489C109.679 103.438 109.839 104.147 110.159 104.617C110.49 105.086 110.975 105.321 111.615 105.321C112.042 105.321 112.453 105.23 112.847 105.049C113.253 104.857 113.61 104.59 113.919 104.249C114.229 103.897 114.463 103.491 114.623 103.033V97.7845H115.711V104.809C115.711 104.958 115.743 105.07 115.807 105.145C115.871 105.209 115.967 105.246 116.095 105.257V106.121C115.967 106.131 115.866 106.137 115.791 106.137C115.717 106.147 115.647 106.153 115.583 106.153C115.37 106.131 115.183 106.046 115.023 105.897C114.874 105.747 114.794 105.566 114.783 105.353L114.751 104.233C114.389 104.873 113.893 105.374 113.263 105.737C112.645 106.099 111.973 106.281 111.247 106.281C110.373 106.281 109.711 105.977 109.263 105.369C108.815 104.761 108.591 103.865 108.591 102.681ZM122.171 105.721C122.086 105.753 121.953 105.811 121.771 105.897C121.59 105.982 121.371 106.057 121.115 106.121C120.859 106.185 120.582 106.217 120.283 106.217C119.974 106.217 119.681 106.158 119.403 106.041C119.137 105.923 118.923 105.747 118.763 105.513C118.603 105.267 118.523 104.969 118.523 104.617V98.6485H117.371V97.7845H118.523V94.9685H119.611V97.7845H121.531V98.6485H119.611V104.313C119.633 104.611 119.739 104.835 119.931 104.985C120.134 105.134 120.363 105.209 120.619 105.209C120.918 105.209 121.19 105.161 121.435 105.065C121.681 104.958 121.83 104.883 121.883 104.841L122.171 105.721Z" fill="#2C2C2C"/>
<path fill-rule="evenodd" clip-rule="evenodd" d="M69.6986 68.4005H65.9226L46.9146 113.841H51.7146L56.6638 101.766L58.5001 96.1125H58.4986L58.506 96.0944L58.5098 96.0827H58.5109L67.7786 73.6485L76.9184 96.0827H76.92L76.9278 96.1058L76.9306 96.1125H76.9301L78.8731 101.844H78.8712L83.8426 113.841H88.5786L69.6986 68.4005Z" fill="#2C2C2C"/>
<path d="M96.6986 66.8787V61.9827H97.7866V66.6867C97.7866 67.6361 97.9466 68.3454 98.2666 68.8147C98.5973 69.2841 99.0826 69.5187 99.7226 69.5187C100.149 69.5187 100.56 69.4281 100.955 69.2467C101.36 69.0547 101.717 68.7881 102.027 68.4467C102.336 68.0947 102.571 67.6894 102.731 67.2307V61.9827H103.819V69.0067C103.819 69.1561 103.851 69.2681 103.915 69.3427C103.979 69.4067 104.075 69.4441 104.203 69.4547V70.3187C104.075 70.3294 103.973 70.3347 103.899 70.3347C103.824 70.3454 103.755 70.3507 103.691 70.3507C103.477 70.3294 103.291 70.2441 103.131 70.0947C102.981 69.9454 102.901 69.7641 102.891 69.5507L102.859 68.4307C102.496 69.0707 102 69.5721 101.371 69.9347C100.752 70.2974 100.08 70.4787 99.3546 70.4787C98.4799 70.4787 97.8186 70.1747 97.3706 69.5667C96.9226 68.9587 96.6986 68.0627 96.6986 66.8787ZM110.279 69.9187C110.193 69.9507 110.06 70.0094 109.879 70.0947C109.697 70.1801 109.479 70.2547 109.223 70.3187C108.967 70.3827 108.689 70.4147 108.391 70.4147C108.081 70.4147 107.788 70.3561 107.511 70.2387C107.244 70.1214 107.031 69.9454 106.871 69.7107C106.711 69.4654 106.631 69.1667 106.631 68.8147V62.8467H105.479V61.9827H106.631V59.1667H107.719V61.9827H109.639V62.8467H107.719V68.5107C107.74 68.8094 107.847 69.0334 108.039 69.1827C108.241 69.3321 108.471 69.4067 108.727 69.4067C109.025 69.4067 109.297 69.3587 109.543 69.2627C109.788 69.1561 109.937 69.0814 109.991 69.0387L110.279 69.9187Z" fill="#2C2C2C"/>
<path d="M100.063 77.6387L99.7906 79.3347H100.175V80.9827H99.1026V79.3347L99.5026 77.6387H100.063ZM109.427 89.3187H108.339V84.6627C108.339 83.6814 108.195 82.9667 107.907 82.5187C107.619 82.0601 107.166 81.8307 106.547 81.8307C106.121 81.8307 105.699 81.9374 105.283 82.1507C104.867 82.3534 104.499 82.6361 104.179 82.9987C103.87 83.3507 103.646 83.7561 103.507 84.2147V89.3187H102.419V80.9827H103.411V82.8707C103.635 82.4654 103.929 82.1134 104.291 81.8147C104.654 81.5054 105.065 81.2654 105.523 81.0947C105.982 80.9241 106.457 80.8387 106.947 80.8387C107.406 80.8387 107.795 80.9241 108.115 81.0947C108.435 81.2654 108.691 81.5107 108.883 81.8307C109.075 82.1401 109.214 82.5187 109.299 82.9667C109.385 83.4041 109.427 83.8947 109.427 84.4387V89.3187Z" fill="#2C2C2C"/>
<path d="M67.4866 97.7187C63.5399 97.7187 59.9399 96.9187 56.6866 95.3187C53.4332 93.6654 50.6332 91.4787 48.2866 88.7587C45.9399 86.0387 44.1266 82.9721 42.8466 79.5587C41.5666 76.0921 40.9266 72.5454 40.9266 68.9187C40.9266 65.1321 41.5932 61.5321 42.9266 58.1187C44.2599 54.6521 46.1266 51.5854 48.5266 48.9187C50.9799 46.1987 53.8066 44.0654 57.0066 42.5187C60.2599 40.9187 63.7533 40.1187 67.4866 40.1187C71.4333 40.1187 75.0333 40.9454 78.2866 42.5987C81.5399 44.2521 84.3132 46.4654 86.6066 49.2387C88.9533 52.0121 90.7666 55.1054 92.0466 58.5187C93.3266 61.9321 93.9666 65.3987 93.9666 68.9187C93.9666 72.7587 93.2999 76.4121 91.9666 79.8787C90.6333 83.2921 88.7666 86.3587 86.3666 89.0787C83.9666 91.7454 81.1399 93.8521 77.8866 95.3987C74.6866 96.9454 71.2199 97.7187 67.4866 97.7187ZM43.7266 68.9187C43.7266 72.3321 44.3132 75.6121 45.4866 78.7587C46.6599 81.8521 48.2866 84.6254 50.3666 87.0787C52.4999 89.5321 55.0066 91.4787 57.8866 92.9187C60.8199 94.3587 64.0199 95.0787 67.4866 95.0787C71.0066 95.0787 74.2333 94.3321 77.1666 92.8387C80.0999 91.3454 82.6066 89.3454 84.6866 86.8387C86.7666 84.3321 88.3666 81.5321 89.4866 78.4387C90.6066 75.3454 91.1666 72.1721 91.1666 68.9187C91.1666 65.5054 90.5799 62.2521 89.4066 59.1587C88.2333 56.0121 86.5799 53.2121 84.4466 50.7587C82.3133 48.3054 79.7799 46.3587 76.8466 44.9187C73.9666 43.4787 70.8466 42.7587 67.4866 42.7587C63.9133 42.7587 60.6599 43.5054 57.7266 44.9987C54.8466 46.4921 52.3666 48.4921 50.2866 50.9987C48.2066 53.5054 46.5799 56.3054 45.4066 59.3987C44.2866 62.4921 43.7266 65.6654 43.7266 68.9187Z" fill="#2C2C2C"/>
</svg>
