<svg xmlns="http://www.w3.org/2000/svg" width="253" height="43" fill="none" viewBox="0 0 253 43"><path fill="#202020" d="M13.9219 34.2191C12.1219 34.2191 10.4899 33.8591 9.02588 33.1391C7.56188 32.4191 6.30188 31.4471 5.24588 30.2231C4.18988 28.9751 3.37388 27.5831 2.79787 26.0471C2.22188 24.4871 1.93388 22.8911 1.93388 21.2591C1.93388 19.5551 2.23388 17.9351 2.83388 16.3991C3.43388 14.8391 4.27388 13.4591 5.35388 12.2591C6.45788 11.0351 7.74188 10.0751 9.20588 9.37906C10.6699 8.65906 12.2539 8.29906 13.9579 8.29906C15.7579 8.29906 17.3899 8.67106 18.8539 9.41506C20.3179 10.1591 21.5659 11.1551 22.5979 12.4031C23.6539 13.6511 24.4699 15.0431 25.0459 16.5791C25.6219 18.1151 25.9099 19.6871 25.9099 21.2951C25.9099 22.9991 25.6099 24.6311 25.0099 26.1911C24.4099 27.7271 23.5699 29.1071 22.4899 30.3311C21.4099 31.5311 20.1379 32.4791 18.6739 33.1751C17.2099 33.8711 15.6259 34.2191 13.9219 34.2191ZM4.45388 21.2591C4.45388 22.6511 4.68188 23.9951 5.13788 25.2911C5.59388 26.5631 6.24188 27.7031 7.08188 28.7111C7.92188 29.6951 8.91788 30.4871 10.0699 31.0871C11.2459 31.6631 12.5299 31.9511 13.9219 31.9511C15.3859 31.9511 16.6939 31.6511 17.8459 31.0511C19.0219 30.4271 20.0179 29.6111 20.8339 28.6031C21.6739 27.5711 22.3099 26.4191 22.7419 25.1471C23.1739 23.8751 23.3899 22.5791 23.3899 21.2591C23.3899 19.8671 23.1619 18.5351 22.7059 17.2631C22.2499 15.9911 21.5899 14.8511 20.7259 13.8431C19.8859 12.8351 18.8899 12.0431 17.7379 11.4671C16.5859 10.8911 15.3139 10.6031 13.9219 10.6031C12.4819 10.6031 11.1739 10.9031 9.99788 11.5031C8.84588 12.1031 7.84988 12.9191 7.00988 13.9511C6.19388 14.9591 5.55788 16.0991 5.10188 17.3711C4.66988 18.6431 4.45388 19.9391 4.45388 21.2591ZM41.065 34.2191C39.049 34.2191 37.345 33.8591 35.953 33.1391C34.561 32.4191 33.457 31.4591 32.641 30.2591C31.825 29.0351 31.225 27.6551 30.841 26.1191C30.481 24.5831 30.301 22.9991 30.301 21.3671V8.47906H32.785V21.3671C32.785 22.6871 32.917 23.9831 33.181 25.2551C33.469 26.5271 33.925 27.6671 34.549 28.6751C35.173 29.6831 36.013 30.4871 37.069 31.0871C38.125 31.6631 39.445 31.9511 41.029 31.9511C42.661 31.9511 44.005 31.6511 45.061 31.0511C46.141 30.4271 46.981 29.6111 47.581 28.6031C48.205 27.5951 48.649 26.4671 48.913 25.2191C49.177 23.9471 49.309 22.6631 49.309 21.3671V8.47906H51.829V21.3671C51.829 23.0711 51.637 24.7031 51.253 26.2631C50.869 27.8231 50.245 29.1911 49.381 30.3671C48.541 31.5431 47.437 32.4791 46.069 33.1751C44.701 33.8711 43.033 34.2191 41.065 34.2191ZM75.9808 10.7111H66.8728V34.0391H64.3528V10.7111H55.2448V8.47906H75.9808V10.7111ZM89.1906 7.75906L88.5786 11.5751H89.4426V15.2831H87.0306V11.5751L87.9306 7.75906H89.1906ZM97.517 13.1231V34.0391H94.997V8.47906H97.085L113.861 29.7911V8.51506H116.381V34.0391H114.041L97.517 13.1231ZM138.776 8.47906H140.9L151.52 34.0391H148.856L145.544 26.0471H134.06L130.784 34.0391H128.084L138.776 8.47906ZM144.968 24.0671L139.82 11.4311L134.6 24.0671H144.968ZM174.408 27.4511C174.408 28.7231 174.084 29.8631 173.436 30.8711C172.788 31.8551 171.912 32.6351 170.808 33.2111C169.728 33.7631 168.54 34.0391 167.244 34.0391H155.184V8.47906H167.496C168.696 8.47906 169.728 8.80306 170.592 9.45106C171.48 10.0751 172.152 10.8911 172.608 11.8991C173.088 12.8831 173.328 13.9151 173.328 14.9951C173.328 16.2671 173.004 17.4431 172.356 18.5231C171.708 19.6031 170.808 20.4071 169.656 20.9351C171.12 21.3671 172.272 22.1711 173.112 23.3471C173.976 24.5231 174.408 25.8911 174.408 27.4511ZM171.888 27.0191C171.888 26.1551 171.696 25.3631 171.312 24.6431C170.928 23.8991 170.4 23.2991 169.728 22.8431C169.08 22.3871 168.336 22.1591 167.496 22.1591H157.704V31.8431H167.244C168.108 31.8431 168.888 31.6151 169.584 31.1591C170.28 30.7031 170.832 30.1151 171.24 29.3951C171.672 28.6511 171.888 27.8591 171.888 27.0191ZM157.704 10.6751V20.1071H166.488C167.328 20.1071 168.072 19.8911 168.72 19.4591C169.368 19.0031 169.884 18.4151 170.268 17.6951C170.652 16.9751 170.844 16.2071 170.844 15.3911C170.844 14.5271 170.664 13.7471 170.304 13.0511C169.944 12.3311 169.452 11.7551 168.828 11.3231C168.204 10.8911 167.496 10.6751 166.704 10.6751H157.704ZM189.457 34.2191C187.657 34.2191 186.025 33.8591 184.561 33.1391C183.097 32.4191 181.837 31.4471 180.781 30.2231C179.725 28.9751 178.909 27.5831 178.333 26.0471C177.757 24.4871 177.469 22.8911 177.469 21.2591C177.469 19.5551 177.769 17.9351 178.369 16.3991C178.969 14.8391 179.809 13.4591 180.889 12.2591C181.993 11.0351 183.277 10.0751 184.741 9.37906C186.205 8.65906 187.789 8.29906 189.493 8.29906C191.293 8.29906 192.925 8.67106 194.389 9.41506C195.853 10.1591 197.101 11.1551 198.133 12.4031C199.189 13.6511 200.005 15.0431 200.581 16.5791C201.157 18.1151 201.445 19.6871 201.445 21.2951C201.445 22.9991 201.145 24.6311 200.545 26.1911C199.945 27.7271 199.105 29.1071 198.025 30.3311C196.945 31.5311 195.673 32.4791 194.209 33.1751C192.745 33.8711 191.161 34.2191 189.457 34.2191ZM179.989 21.2591C179.989 22.6511 180.217 23.9951 180.673 25.2911C181.129 26.5631 181.777 27.7031 182.617 28.7111C183.457 29.6951 184.453 30.4871 185.605 31.0871C186.781 31.6631 188.065 31.9511 189.457 31.9511C190.921 31.9511 192.229 31.6511 193.381 31.0511C194.557 30.4271 195.553 29.6111 196.369 28.6031C197.209 27.5711 197.845 26.4191 198.277 25.1471C198.709 23.8751 198.925 22.5791 198.925 21.2591C198.925 19.8671 198.697 18.5351 198.241 17.2631C197.785 15.9911 197.125 14.8511 196.261 13.8431C195.421 12.8351 194.425 12.0431 193.273 11.4671C192.121 10.8911 190.849 10.6031 189.457 10.6031C188.017 10.6031 186.709 10.9031 185.533 11.5031C184.381 12.1031 183.385 12.9191 182.545 13.9511C181.729 14.9591 181.093 16.0991 180.637 17.3711C180.205 18.6431 179.989 19.9391 179.989 21.2591ZM216.6 34.2191C214.584 34.2191 212.88 33.8591 211.488 33.1391C210.096 32.4191 208.992 31.4591 208.176 30.2591C207.36 29.0351 206.76 27.6551 206.376 26.1191C206.016 24.5831 205.836 22.9991 205.836 21.3671V8.47906H208.32V21.3671C208.32 22.6871 208.452 23.9831 208.716 25.2551C209.004 26.5271 209.46 27.6671 210.084 28.6751C210.708 29.6831 211.548 30.4871 212.604 31.0871C213.66 31.6631 214.98 31.9511 216.564 31.9511C218.196 31.9511 219.54 31.6511 220.596 31.0511C221.676 30.4271 222.516 29.6111 223.116 28.6031C223.74 27.5951 224.184 26.4671 224.448 25.2191C224.712 23.9471 224.844 22.6631 224.844 21.3671V8.47906H227.364V21.3671C227.364 23.0711 227.172 24.7031 226.788 26.2631C226.404 27.8231 225.78 29.1911 224.916 30.3671C224.076 31.5431 222.972 32.4791 221.604 33.1751C220.236 33.8711 218.568 34.2191 216.6 34.2191ZM251.516 10.7111H242.408V34.0391H239.888V10.7111H230.78V8.47906H251.516V10.7111Z"/></svg>