<svg width="101" height="101" viewBox="0 0 101 101" fill="none" xmlns="http://www.w3.org/2000/svg">
<g clip-path="url(#clip0_53_313)">
<path d="M50.251 0.411865L100.251 50.4118L50.251 100.412L0.250977 50.4118L50.251 0.411865Z" fill="#FB9600"/>
<path d="M58.499 66.1336C58.0923 66.1336 57.7157 66.0305 57.369 65.8256C57.0223 65.6132 56.7523 65.3486 56.559 65.0305V66.0343H55.949V58.7793H56.629V61.9395C56.8623 61.5884 57.1423 61.3068 57.469 61.0948C57.7957 60.8762 58.1757 60.7669 58.609 60.7669C58.9757 60.7669 59.3023 60.8431 59.589 60.9954C59.8823 61.1478 60.1323 61.3532 60.339 61.6116C60.5457 61.8633 60.7023 62.1515 60.809 62.4765C60.9157 62.7945 60.969 63.1225 60.969 63.4604C60.969 63.8243 60.9057 64.1659 60.779 64.484C60.659 64.802 60.4857 65.0864 60.259 65.3386C60.0323 65.5833 59.769 65.779 59.469 65.9249C59.1757 66.0641 58.8523 66.1336 58.499 66.1336ZM58.339 65.5374C58.619 65.5374 58.879 65.4809 59.119 65.3684C59.359 65.2554 59.5657 65.1001 59.739 64.9013C59.9123 64.7026 60.0457 64.4802 60.139 64.2355C60.2323 63.9833 60.279 63.7249 60.279 63.4604C60.279 63.0958 60.199 62.7548 60.039 62.4368C59.8857 62.1118 59.669 61.8534 59.389 61.6613C59.1157 61.4625 58.7923 61.3632 58.419 61.3632C58.1523 61.3632 57.9023 61.4228 57.669 61.542C57.4423 61.6613 57.239 61.8203 57.059 62.0191C56.8857 62.2112 56.7423 62.4231 56.629 62.6554V64.2653C56.6557 64.4442 56.7257 64.6131 56.839 64.7722C56.9523 64.9243 57.0923 65.0566 57.259 65.1697C57.4323 65.2821 57.6123 65.3715 57.799 65.438C57.9857 65.5038 58.1657 65.5374 58.339 65.5374ZM64.3409 66.1336C63.9677 66.1336 63.6208 66.0641 63.3008 65.9249C62.9877 65.779 62.7142 65.5833 62.4809 65.3386C62.2542 65.0864 62.0775 64.802 61.9509 64.484C61.8242 64.1591 61.7609 63.8181 61.7609 63.4604C61.7609 63.0889 61.8242 62.7448 61.9509 62.4268C62.0775 62.1018 62.2575 61.817 62.4909 61.5718C62.7242 61.3201 62.9977 61.1246 63.3109 60.9855C63.6309 60.8397 63.9777 60.7669 64.3509 60.7669C64.724 60.7669 65.0677 60.8397 65.3809 60.9855C65.694 61.1246 65.9677 61.3201 66.2008 61.5718C66.434 61.817 66.614 62.1018 66.7409 62.4268C66.8677 62.7448 66.9309 63.0889 66.9309 63.4604C66.9309 63.8181 66.8677 64.1591 66.7409 64.484C66.614 64.802 66.434 65.0864 66.2008 65.3386C65.974 65.5833 65.7009 65.779 65.3809 65.9249C65.0677 66.0641 64.7209 66.1336 64.3409 66.1336ZM62.4508 63.4703C62.4508 63.8541 62.5342 64.2057 62.7009 64.5237C62.874 64.8349 63.104 65.0833 63.3909 65.269C63.6777 65.4479 63.994 65.5374 64.3409 65.5374C64.6877 65.5374 65.004 65.4442 65.2909 65.2591C65.5777 65.0734 65.8077 64.8218 65.9809 64.5038C66.154 64.179 66.2409 63.8281 66.2409 63.4504C66.2409 63.0659 66.154 62.715 65.9809 62.397C65.8077 62.0787 65.5777 61.8269 65.2909 61.6414C65.004 61.4559 64.6877 61.3632 64.3409 61.3632C63.994 61.3632 63.6777 61.4592 63.3909 61.6513C63.1109 61.8435 62.884 62.0986 62.7108 62.4169C62.5375 62.7281 62.4508 63.079 62.4508 63.4703ZM68.0184 63.8976V60.8563H68.6984V63.7784C68.6984 64.3678 68.7984 64.8082 68.9984 65.1001C69.2046 65.3914 69.5084 65.5374 69.9084 65.5374C70.1746 65.5374 70.4315 65.4809 70.6784 65.3684C70.9315 65.2492 71.1546 65.0833 71.3483 64.8715C71.5415 64.6529 71.6884 64.4007 71.7884 64.1163V60.8563H72.4683V65.2194C72.4683 65.3119 72.4883 65.3815 72.5283 65.4281C72.5683 65.4678 72.6284 65.4908 72.7084 65.4976V66.0343C72.6284 66.0405 72.5646 66.0442 72.5184 66.0442C72.4715 66.0504 72.4284 66.0541 72.3884 66.0541C72.2546 66.0405 72.1384 65.9877 72.0384 65.8951C71.9446 65.802 71.8946 65.6895 71.8884 65.5572L71.8684 64.8616C71.6415 65.2591 71.3315 65.5703 70.9384 65.7958C70.5515 66.0206 70.1315 66.1336 69.6784 66.1336C69.1315 66.1336 68.7184 65.9448 68.4384 65.5672C68.1584 65.1895 68.0184 64.633 68.0184 63.8976ZM76.5059 65.7858C76.4521 65.8057 76.369 65.8417 76.2559 65.8951C76.1421 65.9479 76.0059 65.9945 75.8459 66.0343C75.6859 66.074 75.5121 66.0939 75.3259 66.0939C75.1321 66.0939 74.949 66.0572 74.7759 65.9846C74.609 65.9113 74.4759 65.802 74.3759 65.6566C74.2759 65.5038 74.2259 65.3187 74.2259 65.1001V61.393H73.5059V60.8563H74.2259V59.1072H74.9059V60.8563H76.1058V61.393H74.9059V64.9113C74.919 65.0964 74.9859 65.2355 75.1059 65.3287C75.2321 65.4212 75.3759 65.4678 75.5359 65.4678C75.7221 65.4678 75.8921 65.438 76.0459 65.3784C76.199 65.3119 76.2921 65.2653 76.3259 65.2392L76.5059 65.7858Z" fill="#202020"/>
<path fill-rule="evenodd" clip-rule="evenodd" d="M43.7102 42.6052H41.3502L29.4702 70.8291H32.4702L35.5635 63.3291L36.7112 59.8177H36.7102L36.7149 59.8064L36.7173 59.7991H36.7179L42.5102 45.8649L48.2226 59.7991H48.2236L48.2285 59.8135L48.2302 59.8177L49.4443 63.3776H49.4431L52.5502 70.8291H55.5102L43.7102 42.6052Z" fill="#202020"/>
<path d="M61.8352 41.6602V38.6192H62.5152V41.5409C62.5152 42.1306 62.6152 42.5712 62.8152 42.8627C63.0219 43.1542 63.3252 43.2999 63.7252 43.2999C63.9919 43.2999 64.2483 43.2437 64.4952 43.131C64.7483 43.0117 64.9721 42.8461 65.1652 42.6341C65.3583 42.4155 65.5052 42.1637 65.6052 41.8788V38.6192H66.2852V42.9819C66.2852 43.0747 66.3052 43.1443 66.3452 43.1906C66.3852 43.2304 66.4452 43.2536 66.5252 43.2602V43.7968C66.4452 43.8035 66.3821 43.8068 66.3352 43.8068C66.2883 43.8134 66.2452 43.8167 66.2052 43.8167C66.0721 43.8035 65.9552 43.7505 65.8552 43.6577C65.7621 43.565 65.7121 43.4524 65.7052 43.3198L65.6852 42.6242C65.4583 43.0217 65.1483 43.3331 64.7552 43.5583C64.3683 43.7836 63.9486 43.8962 63.4952 43.8962C62.9486 43.8962 62.5352 43.7074 62.2552 43.3297C61.9752 42.9521 61.8352 42.3956 61.8352 41.6602ZM70.3227 43.5484C70.2696 43.5683 70.1858 43.6047 70.0727 43.6577C69.9596 43.7107 69.8227 43.7571 69.6627 43.7968C69.5027 43.8366 69.3296 43.8565 69.1427 43.8565C68.9496 43.8565 68.7658 43.8201 68.5927 43.7471C68.4258 43.6743 68.2927 43.565 68.1927 43.4192C68.0927 43.2668 68.0427 43.0813 68.0427 42.8627V39.1558H67.3227V38.6192H68.0427V36.8701H68.7227V38.6192H69.9227V39.1558H68.7227V42.6738C68.7358 42.8594 68.8027 42.9985 68.9227 43.0912C69.0496 43.184 69.1927 43.2304 69.3527 43.2304C69.5396 43.2304 69.7096 43.2006 69.8627 43.1409C70.0158 43.0747 70.1096 43.0283 70.1427 43.0018L70.3227 43.5484Z" fill="#202020"/>
<path d="M62.6879 48.3435L62.5179 49.3969H62.7579V50.4205H62.0879V49.3969L62.3379 48.3435H62.6879ZM68.541 55.5982H67.861V52.7062C67.861 52.0967 67.771 51.6528 67.591 51.3746C67.411 51.0897 67.1273 50.9472 66.741 50.9472C66.4741 50.9472 66.211 51.0135 65.951 51.146C65.691 51.2719 65.461 51.4475 65.261 51.6727C65.0673 51.8913 64.9273 52.1431 64.841 52.428V55.5982H64.161V50.4205H64.781V51.5932C64.921 51.3415 65.1041 51.1228 65.331 50.9373C65.5573 50.7452 65.8141 50.5961 66.101 50.4901C66.3873 50.3841 66.6841 50.3311 66.991 50.3311C67.2773 50.3311 67.521 50.3841 67.721 50.4901C67.921 50.5961 68.081 50.7485 68.201 50.9472C68.321 51.1394 68.4073 51.3746 68.461 51.6528C68.5141 51.9245 68.541 52.2292 68.541 52.5671V55.5982Z" fill="#202020"/>
<path d="M42.3278 60.8155C39.8611 60.8155 37.6111 60.3186 35.5778 59.3248C33.5445 58.2979 31.7945 56.9397 30.3278 55.2502C28.8611 53.5608 27.7278 51.6561 26.9278 49.536C26.1278 47.3828 25.7278 45.1799 25.7278 42.9273C25.7278 40.5753 26.1445 38.3393 26.9778 36.2192C27.8111 34.066 28.9778 32.1612 30.4778 30.5049C32.0111 28.8155 33.7778 27.4904 35.7778 26.5297C37.8111 25.536 39.9945 25.0391 42.3278 25.0391C44.7945 25.0391 47.0445 25.5525 49.0778 26.5794C51.1111 27.6064 52.8445 28.9811 54.2778 30.7037C55.7445 32.4263 56.8778 34.3476 57.6778 36.4676C58.4778 38.5878 58.8778 40.7409 58.8778 42.9273C58.8778 45.3124 58.4611 47.5815 57.6278 49.7347C56.7945 51.8548 55.6278 53.7596 54.1278 55.449C52.6278 57.1053 50.8611 58.4138 48.8278 59.3745C46.8278 60.3351 44.6611 60.8155 42.3278 60.8155ZM27.4778 42.9273C27.4778 45.0474 27.8445 47.0847 28.5778 49.0391C29.3111 50.9604 30.3278 52.683 31.6278 54.2068C32.9611 55.7306 34.5278 56.9397 36.3278 57.8341C38.1611 58.7285 40.1611 59.1757 42.3278 59.1757C44.5278 59.1757 46.5445 58.712 48.3778 57.7844C50.2111 56.8569 51.7778 55.6147 53.0778 54.0577C54.3778 52.5008 55.3778 50.7617 56.0778 48.8403C56.7778 46.919 57.1278 44.948 57.1278 42.9273C57.1278 40.8072 56.7611 38.7865 56.0278 36.8651C55.2945 34.9107 54.2611 33.1716 52.9278 31.6478C51.5945 30.124 50.0111 28.9148 48.1778 28.0204C46.3778 27.126 44.4278 26.6788 42.3278 26.6788C40.0945 26.6788 38.0611 27.1426 36.2278 28.0701C34.4278 28.9977 32.8778 30.2399 31.5778 31.7968C30.2778 33.3538 29.2611 35.0929 28.5278 37.0142C27.8278 38.9356 27.4778 40.9066 27.4778 42.9273Z" fill="#202020"/>
</g>
<defs>
<clipPath id="clip0_53_313">
<rect width="100" height="100" fill="white" transform="translate(0.250977 0.120605)"/>
</clipPath>
</defs>
</svg>
