<svg width="86" height="95" viewBox="0 0 86 95" fill="none" xmlns="http://www.w3.org/2000/svg">
<path d="M56.197 84.7947C55.5463 84.7947 54.9437 84.6294 54.389 84.2987C53.8343 83.9574 53.4023 83.5307 53.093 83.0187V84.6347H52.117V72.9547H53.205V78.0427C53.5783 77.4774 54.0263 77.0241 54.549 76.6827C55.0717 76.3307 55.6797 76.1547 56.373 76.1547C56.9597 76.1547 57.4823 76.2774 57.941 76.5227C58.4103 76.7681 58.8103 77.0987 59.141 77.5147C59.4717 77.9201 59.7223 78.3841 59.893 78.9067C60.0637 79.4187 60.149 79.9467 60.149 80.4907C60.149 81.0774 60.0477 81.6267 59.845 82.1387C59.653 82.6507 59.3757 83.1094 59.013 83.5147C58.6503 83.9094 58.229 84.2241 57.749 84.4587C57.2797 84.6827 56.7623 84.7947 56.197 84.7947ZM55.941 83.8347C56.389 83.8347 56.805 83.7441 57.189 83.5627C57.573 83.3814 57.9037 83.1307 58.181 82.8107C58.4583 82.4907 58.6717 82.1334 58.821 81.7387C58.9703 81.3334 59.045 80.9174 59.045 80.4907C59.045 79.9041 58.917 79.3547 58.661 78.8427C58.4157 78.3201 58.069 77.9041 57.621 77.5947C57.1837 77.2747 56.6663 77.1147 56.069 77.1147C55.6423 77.1147 55.2423 77.2107 54.869 77.4027C54.5063 77.5947 54.181 77.8507 53.893 78.1707C53.6157 78.4801 53.3863 78.8214 53.205 79.1947V81.7867C53.2477 82.0747 53.3597 82.3467 53.541 82.6027C53.7223 82.8481 53.9463 83.0614 54.213 83.2427C54.4903 83.4241 54.7783 83.5681 55.077 83.6747C55.3757 83.7814 55.6637 83.8347 55.941 83.8347ZM65.544 84.7947C64.9467 84.7947 64.392 84.6827 63.88 84.4587C63.3787 84.2241 62.9413 83.9094 62.568 83.5147C62.2053 83.1094 61.9227 82.6507 61.72 82.1387C61.5173 81.6161 61.416 81.0667 61.416 80.4907C61.416 79.8934 61.5173 79.3387 61.72 78.8267C61.9227 78.3041 62.2107 77.8454 62.584 77.4507C62.9573 77.0454 63.3947 76.7307 63.896 76.5067C64.408 76.2721 64.9627 76.1547 65.56 76.1547C66.1573 76.1547 66.7067 76.2721 67.208 76.5067C67.7093 76.7307 68.1467 77.0454 68.52 77.4507C68.8933 77.8454 69.1813 78.3041 69.384 78.8267C69.5867 79.3387 69.688 79.8934 69.688 80.4907C69.688 81.0667 69.5867 81.6161 69.384 82.1387C69.1813 82.6507 68.8933 83.1094 68.52 83.5147C68.1573 83.9094 67.72 84.2241 67.208 84.4587C66.7067 84.6827 66.152 84.7947 65.544 84.7947ZM62.52 80.5067C62.52 81.1254 62.6533 81.6907 62.92 82.2027C63.1973 82.7041 63.5653 83.1041 64.024 83.4027C64.4827 83.6907 64.9893 83.8347 65.544 83.8347C66.0987 83.8347 66.6053 83.6854 67.064 83.3867C67.5227 83.0881 67.8907 82.6827 68.168 82.1707C68.4453 81.6481 68.584 81.0827 68.584 80.4747C68.584 79.8561 68.4453 79.2907 68.168 78.7787C67.8907 78.2667 67.5227 77.8614 67.064 77.5627C66.6053 77.2641 66.0987 77.1147 65.544 77.1147C64.9893 77.1147 64.4827 77.2694 64.024 77.5787C63.576 77.8881 63.2133 78.2987 62.936 78.8107C62.6587 79.3121 62.52 79.8774 62.52 80.5067ZM71.4276 81.1947V76.2987H72.5156V81.0027C72.5156 81.9521 72.6756 82.6614 72.9956 83.1307C73.3263 83.6001 73.8116 83.8347 74.4516 83.8347C74.8783 83.8347 75.289 83.7441 75.6836 83.5627C76.089 83.3707 76.4463 83.1041 76.7556 82.7627C77.065 82.4107 77.2996 82.0054 77.4596 81.5467V76.2987H78.5476V83.3227C78.5476 83.4721 78.5796 83.5841 78.6436 83.6587C78.7076 83.7227 78.8036 83.7601 78.9316 83.7707V84.6347C78.8036 84.6454 78.7023 84.6507 78.6276 84.6507C78.553 84.6614 78.4836 84.6667 78.4196 84.6667C78.2063 84.6454 78.0196 84.5601 77.8596 84.4107C77.7103 84.2614 77.6303 84.0801 77.6196 83.8667L77.5876 82.7467C77.225 83.3867 76.729 83.8881 76.0996 84.2507C75.481 84.6134 74.809 84.7947 74.0836 84.7947C73.209 84.7947 72.5476 84.4907 72.0996 83.8827C71.6516 83.2747 71.4276 82.3787 71.4276 81.1947ZM85.0076 84.2347C84.9223 84.2667 84.789 84.3254 84.6076 84.4107C84.4263 84.4961 84.2076 84.5707 83.9516 84.6347C83.6956 84.6987 83.4183 84.7307 83.1196 84.7307C82.8103 84.7307 82.517 84.6721 82.2396 84.5547C81.973 84.4374 81.7596 84.2614 81.5996 84.0267C81.4396 83.7814 81.3596 83.4827 81.3596 83.1307V77.1627H80.2076V76.2987H81.3596V73.4827H82.4476V76.2987H84.3676V77.1627H82.4476V82.8267C82.469 83.1254 82.5756 83.3494 82.7676 83.4987C82.9703 83.6481 83.1996 83.7227 83.4556 83.7227C83.7543 83.7227 84.0263 83.6747 84.2716 83.5787C84.517 83.4721 84.6663 83.3974 84.7196 83.3547L85.0076 84.2347Z" fill="#2C2C2C"/>
<path fill-rule="evenodd" clip-rule="evenodd" d="M32.535 46.9147H28.759L9.75098 92.3547H14.551L19.5003 80.2806L21.3366 74.6267H21.335L21.3425 74.6086L21.3463 74.5969H21.3473L30.615 52.1627L39.7548 74.5969H39.7564L39.7642 74.62L39.767 74.6267H39.7665L41.7095 80.3586H41.7076L46.679 92.3547H51.415L32.535 46.9147Z" fill="#2C2C2C"/>
<path d="M59.535 45.3929V40.4969H60.623V45.2009C60.623 46.1503 60.783 46.8596 61.103 47.3289C61.4337 47.7983 61.919 48.0329 62.559 48.0329C62.9857 48.0329 63.3964 47.9423 63.791 47.7609C64.1964 47.5689 64.5537 47.3023 64.863 46.9609C65.1724 46.6089 65.407 46.2036 65.567 45.7449V40.4969H66.655V47.5209C66.655 47.6703 66.687 47.7823 66.751 47.8569C66.815 47.9209 66.911 47.9583 67.039 47.9689V48.8329C66.911 48.8436 66.8097 48.8489 66.735 48.8489C66.6604 48.8596 66.591 48.8649 66.527 48.8649C66.3137 48.8436 66.127 48.7583 65.967 48.6089C65.8177 48.4596 65.7377 48.2783 65.727 48.0649L65.695 46.9449C65.3324 47.5849 64.8364 48.0863 64.207 48.4489C63.5884 48.8116 62.9164 48.9929 62.191 48.9929C61.3164 48.9929 60.655 48.6889 60.207 48.0809C59.759 47.4729 59.535 46.5769 59.535 45.3929ZM73.115 48.4329C73.0297 48.4649 72.8964 48.5236 72.715 48.6089C72.5337 48.6943 72.315 48.7689 72.059 48.8329C71.803 48.8969 71.5257 48.9289 71.227 48.9289C70.9177 48.9289 70.6244 48.8703 70.347 48.7529C70.0804 48.6356 69.867 48.4596 69.707 48.2249C69.547 47.9796 69.467 47.6809 69.467 47.3289V41.3609H68.315V40.4969H69.467V37.6809H70.555V40.4969H72.475V41.3609H70.555V47.0249C70.5764 47.3236 70.683 47.5476 70.875 47.6969C71.0777 47.8463 71.307 47.9209 71.563 47.9209C71.8617 47.9209 72.1337 47.8729 72.379 47.7769C72.6244 47.6703 72.7737 47.5956 72.827 47.5529L73.115 48.4329Z" fill="#2C2C2C"/>
<path d="M62.899 56.1529L62.627 57.8489H63.011V59.4969H61.939V57.8489L62.339 56.1529H62.899ZM72.2637 67.8329H71.1757V63.1769C71.1757 62.1956 71.0317 61.4809 70.7437 61.0329C70.4557 60.5743 70.0023 60.3449 69.3837 60.3449C68.957 60.3449 68.5357 60.4516 68.1197 60.6649C67.7037 60.8676 67.3357 61.1503 67.0157 61.5129C66.7063 61.8649 66.4823 62.2703 66.3437 62.7289V67.8329H65.2557V59.4969H66.2477V61.3849C66.4717 60.9796 66.765 60.6276 67.1277 60.3289C67.4903 60.0196 67.901 59.7796 68.3597 59.6089C68.8183 59.4383 69.293 59.3529 69.7837 59.3529C70.2423 59.3529 70.6317 59.4383 70.9517 59.6089C71.2717 59.7796 71.5277 60.0249 71.7197 60.3449C71.9117 60.6543 72.0503 61.0329 72.1357 61.4809C72.221 61.9183 72.2637 62.4089 72.2637 62.9529V67.8329Z" fill="#2C2C2C"/>
<path d="M30.323 76.2329C26.3763 76.2329 22.7763 75.4329 19.523 73.8329C16.2697 72.1796 13.4697 69.9929 11.123 67.2729C8.77634 64.5529 6.96301 61.4863 5.68301 58.0729C4.40301 54.6063 3.76301 51.0596 3.76301 47.4329C3.76301 43.6463 4.42967 40.0463 5.76301 36.6329C7.09634 33.1663 8.96301 30.0996 11.363 27.4329C13.8163 24.7129 16.643 22.5796 19.843 21.0329C23.0963 19.4329 26.5897 18.6329 30.323 18.6329C34.2697 18.6329 37.8697 19.4596 41.123 21.1129C44.3763 22.7663 47.1497 24.9796 49.443 27.7529C51.7897 30.5263 53.603 33.6196 54.883 37.0329C56.163 40.4463 56.803 43.9129 56.803 47.4329C56.803 51.2729 56.1363 54.9263 54.803 58.3929C53.4697 61.8063 51.603 64.8729 49.203 67.5929C46.803 70.2596 43.9763 72.3663 40.723 73.9129C37.523 75.4596 34.0563 76.2329 30.323 76.2329ZM6.56301 47.4329C6.56301 50.8463 7.14967 54.1263 8.32301 57.2729C9.49634 60.3663 11.123 63.1396 13.203 65.5929C15.3363 68.0463 17.843 69.9929 20.723 71.4329C23.6563 72.8729 26.8563 73.5929 30.323 73.5929C33.843 73.5929 37.0697 72.8463 40.003 71.3529C42.9363 69.8596 45.443 67.8596 47.523 65.3529C49.603 62.8463 51.203 60.0463 52.323 56.9529C53.443 53.8596 54.003 50.6863 54.003 47.4329C54.003 44.0196 53.4163 40.7663 52.243 37.6729C51.0697 34.5263 49.4163 31.7263 47.283 29.2729C45.1497 26.8196 42.6163 24.8729 39.683 23.4329C36.803 21.9929 33.683 21.2729 30.323 21.2729C26.7497 21.2729 23.4963 22.0196 20.563 23.5129C17.683 25.0063 15.203 27.0063 13.123 29.5129C11.043 32.0196 9.41634 34.8196 8.24301 37.9129C7.12301 41.0063 6.56301 44.1796 6.56301 47.4329Z" fill="#2C2C2C"/>
</svg>
