<svg width="90" height="81" viewBox="0 0 90 81" fill="none" xmlns="http://www.w3.org/2000/svg">
<path d="M57.9624 72.508C57.2519 72.508 56.5939 72.3279 55.9882 71.9698C55.3825 71.5986 54.9108 71.1363 54.5731 70.5807V72.3344H53.5073V59.6592H54.6954V65.1805C55.103 64.567 55.5922 64.075 56.1629 63.7047C56.7337 63.3227 57.3976 63.1317 58.1546 63.1317C58.7953 63.1317 59.3659 63.2648 59.8668 63.531C60.3792 63.7972 60.816 64.1561 61.1771 64.6075C61.5382 65.0473 61.8119 65.5508 61.9982 66.1186C62.1846 66.6742 62.2778 67.2471 62.2778 67.8375C62.2778 68.4734 62.1672 69.0702 61.9458 69.6258C61.7362 70.1814 61.4334 70.6784 61.0373 71.119C60.6413 71.5465 60.1813 71.8884 59.6571 72.1434C59.1447 72.3864 58.5797 72.508 57.9624 72.508ZM57.6829 71.4662C58.1721 71.4662 58.6263 71.3675 59.0456 71.1711C59.465 70.9736 59.8261 70.7023 60.1288 70.355C60.4316 70.0078 60.6647 69.6193 60.8277 69.1917C60.9907 68.7512 61.0723 68.2997 61.0723 67.8375C61.0723 67.2005 60.9325 66.6047 60.653 66.0491C60.3851 65.4814 60.0066 65.0299 59.5174 64.6943C59.0399 64.3471 58.4749 64.1734 57.8227 64.1734C57.3567 64.1734 56.92 64.2776 56.5123 64.486C56.1163 64.6943 55.7611 64.9721 55.4466 65.3194C55.1438 65.655 54.8933 66.0253 54.6954 66.4311V69.2438C54.742 69.5564 54.8643 69.8515 55.0623 70.1293C55.2602 70.3952 55.5048 70.6263 55.796 70.8238C56.0988 71.0202 56.4133 71.1765 56.7395 71.2926C57.0656 71.4076 57.3801 71.4662 57.6829 71.4662ZM68.1688 72.508C67.5169 72.508 66.9109 72.3864 66.3518 72.1434C65.8047 71.8884 65.3268 71.5465 64.9192 71.119C64.5231 70.6784 64.2146 70.1814 63.9932 69.6258C63.7719 69.0583 63.6613 68.4625 63.6613 67.8375C63.6613 67.1885 63.7719 66.5874 63.9932 66.0318C64.2146 65.464 64.529 64.9664 64.9367 64.538C65.3443 64.0982 65.8222 63.7567 66.3693 63.5137C66.9284 63.259 67.5344 63.1317 68.1863 63.1317C68.8382 63.1317 69.4387 63.259 69.9858 63.5137C70.5328 63.7567 71.0111 64.0982 71.4184 64.538C71.8257 64.9664 72.1402 65.464 72.3619 66.0318C72.5835 66.5874 72.6938 67.1885 72.6938 67.8375C72.6938 68.4625 72.5835 69.0583 72.3619 69.6258C72.1402 70.1814 71.8257 70.6784 71.4184 71.119C71.022 71.5465 70.5449 71.8884 69.9858 72.1434C69.4387 72.3864 68.8327 72.508 68.1688 72.508ZM64.8668 67.8548C64.8668 68.5255 65.0123 69.1397 65.3035 69.6953C65.606 70.2389 66.0079 70.673 66.5091 70.9974C67.0103 71.31 67.5628 71.4662 68.1688 71.4662C68.7748 71.4662 69.3274 71.3035 69.8286 70.9801C70.3298 70.6556 70.7316 70.2161 71.034 69.6605C71.3365 69.093 71.4883 68.4799 71.4883 67.8201C71.4883 67.1484 71.3365 66.5353 71.034 65.9797C70.7316 65.4235 70.3298 64.9837 69.8286 64.6596C69.3274 64.3355 68.7748 64.1734 68.1688 64.1734C67.5628 64.1734 67.0103 64.3413 66.5091 64.6769C66.0199 65.0126 65.6235 65.4583 65.321 66.0144C65.0182 66.5581 64.8668 67.1712 64.8668 67.8548ZM74.5938 68.6014V63.2879H75.7818V68.3931C75.7818 69.4229 75.9565 70.1923 76.3059 70.7023C76.6663 71.2112 77.197 71.4662 77.8958 71.4662C78.361 71.4662 78.8097 71.3675 79.2411 71.1711C79.6833 70.9627 80.0731 70.673 80.4116 70.3029C80.749 69.921 81.0056 69.4804 81.1804 68.9834V63.2879H82.3684V70.9106C82.3684 71.0723 82.4033 71.1939 82.4732 71.2752C82.5431 71.3447 82.6479 71.3849 82.7877 71.3968V72.3344C82.6479 72.3452 82.5365 72.3517 82.4557 72.3517C82.3738 72.3626 82.2985 72.3691 82.2286 72.3691C81.9949 72.3452 81.7918 72.253 81.6171 72.0913C81.4533 71.9285 81.366 71.7321 81.3551 71.501L81.3201 70.2856C80.9237 70.9801 80.3821 71.5237 79.6953 71.9177C79.0194 72.3105 78.2856 72.508 77.494 72.508C76.5385 72.508 75.8167 72.1781 75.3276 71.5183C74.8384 70.8586 74.5938 69.8862 74.5938 68.6014ZM89.4223 71.9003C89.3284 71.935 89.1832 71.998 88.9855 72.0913C88.7868 72.1835 88.5488 72.2649 88.2692 72.3344C87.9897 72.4038 87.6861 72.4385 87.3607 72.4385C87.0222 72.4385 86.7023 72.3745 86.3998 72.2476C86.1083 72.1195 85.8757 71.9285 85.701 71.6746C85.5263 71.4076 85.4389 71.0843 85.4389 70.7023V64.2255H84.181V63.2879H85.4389V60.2321H86.6269V63.2879H88.7235V64.2255H86.6269V70.3724C86.6499 70.6958 86.7667 70.9389 86.9764 71.1016C87.1969 71.2633 87.4481 71.3447 87.7276 71.3447C88.053 71.3447 88.35 71.2926 88.6186 71.1884C88.8862 71.0723 89.0489 70.9909 89.1078 70.9454L89.4223 71.9003Z" fill="#F7F7F7"/>
<path fill-rule="evenodd" clip-rule="evenodd" d="M32.1249 31.4014H28.0017L7.24609 80.7115H12.4874L17.8917 67.6082L19.8969 61.4733H19.8951L19.9033 61.4536L19.9075 61.4409H19.9086L30.0283 37.0963L40.0084 61.4409H40.0102L40.0187 61.466L40.0218 61.4733L42.1429 67.6928H42.1408L47.5692 80.7115H52.7407L32.1249 31.4014Z" fill="#F7F7F7"/>
<path d="M63.7913 29.7503V24.4374H64.9793V29.542C64.9793 30.5722 65.154 31.3419 65.5034 31.8512C65.8645 32.3606 66.3944 32.6151 67.0933 32.6151C67.5592 32.6151 68.0072 32.5168 68.4386 32.32C68.8808 32.1116 69.2717 31.8223 69.6091 31.4519C69.9465 31.0699 70.2031 30.6301 70.3778 30.1323V24.4374H71.5659V32.0595C71.5659 32.2217 71.6008 32.3432 71.6707 32.4242C71.7406 32.4936 71.8454 32.5342 71.9852 32.5457V33.4833C71.8454 33.4949 71.7351 33.5006 71.6532 33.5006C71.5713 33.5122 71.496 33.518 71.4261 33.518C71.1935 33.4949 70.9893 33.4023 70.8146 33.2402C70.6519 33.0782 70.5646 32.8814 70.5525 32.6499L70.5176 31.4345C70.1212 32.129 69.5796 32.6731 68.8928 33.0666C68.2169 33.4602 67.4835 33.6569 66.6914 33.6569C65.7364 33.6569 65.0142 33.327 64.525 32.6672C64.0359 32.0075 63.7913 31.0352 63.7913 29.7503ZM78.6198 33.0492C78.527 33.0839 78.3807 33.1476 78.183 33.2402C77.9854 33.3329 77.7462 33.4138 77.4667 33.4833C77.1872 33.5527 76.8847 33.5874 76.5582 33.5874C76.2208 33.5874 75.8998 33.5239 75.5973 33.3965C75.3058 33.2692 75.0732 33.0782 74.8985 32.8235C74.7238 32.5573 74.6364 32.2332 74.6364 31.8512V25.375H73.3785V24.4374H74.6364V21.3816H75.8244V24.4374H77.921V25.375H75.8244V31.5213C75.8474 31.8454 75.9642 32.0885 76.1739 32.2505C76.3955 32.4127 76.6456 32.4936 76.9251 32.4936C77.2516 32.4936 77.5486 32.4415 77.8161 32.3373C78.0837 32.2217 78.2474 32.1406 78.3053 32.0943L78.6198 33.0492Z" fill="#F7F7F7"/>
<path d="M65.2804 41.4268L64.9834 43.2672H65.4027V45.0555H64.2322V43.2672L64.6689 41.4268H65.2804ZM75.5065 54.1014H74.3184V49.0489C74.3184 47.984 74.1612 47.2085 73.8467 46.7223C73.5322 46.2247 73.0365 45.9757 72.3617 45.9757C71.8954 45.9757 71.4357 46.0915 70.9815 46.323C70.5272 46.5429 70.1254 46.8497 69.776 47.2432C69.4374 47.6252 69.1929 48.0651 69.0422 48.5627V54.1014H67.8541V45.0555H68.9373V47.1043C69.1819 46.6645 69.5019 46.2825 69.8982 45.9584C70.2935 45.6227 70.7423 45.3623 71.2435 45.1771C71.7436 44.9919 72.2623 44.8993 72.7984 44.8993C73.2985 44.8993 73.7244 44.9919 74.0738 45.1771C74.4233 45.3623 74.7028 45.6285 74.9124 45.9757C75.1221 46.3115 75.2728 46.7223 75.3667 47.2085C75.4595 47.6831 75.5065 48.2155 75.5065 48.8058V54.1014Z" fill="#F7F7F7"/>
<path d="M29.7097 63.2165C25.4001 63.2165 21.4691 62.3484 17.9167 60.6121C14.3643 58.818 11.3069 56.4451 8.74444 53.4935C6.18199 50.5419 4.20197 47.2141 2.80429 43.51C1.4066 39.7482 0.707764 35.8995 0.707764 31.964C0.707764 27.8549 1.43576 23.9483 2.89164 20.2443C4.34753 16.4825 6.38585 13.1546 9.0065 10.2608C11.6854 7.30919 14.7719 4.99422 18.2662 3.31581C21.8186 1.57955 25.6331 0.711426 29.7097 0.711426C34.0192 0.711426 37.9502 1.60853 41.5026 3.40262C45.055 5.19682 48.0834 7.5986 50.5876 10.6081C53.15 13.6176 55.13 16.9744 56.5277 20.6783C57.9254 24.3824 58.6242 28.1442 58.6242 31.964C58.6242 36.131 57.8962 40.0955 56.4404 43.8573C54.9845 47.5614 52.9462 50.8891 50.3255 53.8407C47.7049 56.7345 44.6183 59.0206 41.0659 60.6989C37.5716 62.3773 33.7862 63.2165 29.7097 63.2165ZM3.76519 31.964C3.76519 35.668 4.40584 39.2274 5.68701 42.6419C6.96818 45.9987 8.74444 49.0082 11.0157 51.6704C13.3451 54.3327 16.0823 56.4451 19.2271 58.0077C22.43 59.5704 25.9243 60.3517 29.7097 60.3517C33.5533 60.3517 37.0767 59.5415 40.2797 57.9209C43.4826 56.3005 46.2198 54.1301 48.491 51.41C50.7623 48.6899 52.5094 45.6515 53.7324 42.2947C54.9553 38.9379 55.5668 35.4944 55.5668 31.964C55.5668 28.26 54.9262 24.7296 53.645 21.3728C52.3638 17.9583 50.5584 14.9198 48.229 12.2575C45.8995 9.59529 43.1332 7.48281 39.9302 5.92018C36.7854 4.35756 33.3786 3.57624 29.7097 3.57624C25.8079 3.57624 22.2553 4.38653 19.0523 6.007C15.9076 7.62757 13.1996 9.79788 10.9283 12.5179C8.65709 15.2381 6.88083 18.2765 5.59965 21.6333C4.37668 24.9901 3.76519 28.4336 3.76519 31.964Z" fill="#F7F7F7"/>
</svg>
