<svg width="115" height="116" viewBox="0 0 115 116" fill="none" xmlns="http://www.w3.org/2000/svg">
<path d="M57.5906 1.68628L114.497 58.5931L57.5906 115.5L0.683838 58.5931L57.5906 1.68628Z" fill="#06B7A7"/>
<path fill-rule="evenodd" clip-rule="evenodd" d="M59.5425 46.7681H55.7665L36.7585 92.2081H41.5585L46.5078 80.134L48.3441 74.4801H48.3425L48.35 74.462L48.3538 74.4503H48.3549L57.6225 52.0161L66.7624 74.4503H66.764L66.7718 74.4734L66.7745 74.4801H66.7741L68.7171 80.212H68.7152L73.6865 92.2081H78.4225L59.5425 46.7681Z" fill="#2C2C2C"/>
<path d="M57.3306 76.0863C53.3839 76.0863 49.7839 75.2863 46.5306 73.6863C43.2772 72.0329 40.4772 69.8463 38.1306 67.1263C35.7839 64.4063 33.9706 61.3396 32.6906 57.9263C31.4106 54.4596 30.7706 50.9129 30.7706 47.2863C30.7706 43.4996 31.4372 39.8996 32.7706 36.4863C34.1039 33.0196 35.9706 29.9529 38.3706 27.2863C40.8239 24.5663 43.6506 22.4329 46.8506 20.8863C50.1039 19.2863 53.5972 18.4863 57.3306 18.4863C61.2772 18.4863 64.8772 19.3129 68.1306 20.9663C71.3839 22.6196 74.1572 24.8329 76.4506 27.6063C78.7972 30.3796 80.6106 33.4729 81.8906 36.8863C83.1706 40.2996 83.8106 43.7663 83.8106 47.2863C83.8106 51.1263 83.1439 54.7796 81.8106 58.2463C80.4772 61.6596 78.6106 64.7263 76.2106 67.4463C73.8106 70.1129 70.9839 72.2196 67.7306 73.7663C64.5306 75.3129 61.0639 76.0863 57.3306 76.0863ZM33.5706 47.2863C33.5706 50.6996 34.1572 53.9796 35.3306 57.1263C36.5039 60.2196 38.1306 62.9929 40.2106 65.4463C42.3439 67.8996 44.8506 69.8463 47.7306 71.2863C50.6639 72.7263 53.8639 73.4463 57.3306 73.4463C60.8506 73.4463 64.0772 72.6996 67.0106 71.2063C69.9439 69.7129 72.4506 67.7129 74.5306 65.2063C76.6106 62.6996 78.2106 59.8996 79.3306 56.8063C80.4506 53.7129 81.0106 50.5396 81.0106 47.2863C81.0106 43.8729 80.4239 40.6196 79.2506 37.5263C78.0772 34.3796 76.4239 31.5796 74.2906 29.1263C72.1572 26.6729 69.6239 24.7263 66.6906 23.2863C63.8106 21.8463 60.6906 21.1263 57.3306 21.1263C53.7572 21.1263 50.5039 21.8729 47.5706 23.3663C44.6906 24.8596 42.2106 26.8596 40.1306 29.3663C38.0506 31.8729 36.4239 34.6729 35.2506 37.7663C34.1306 40.8596 33.5706 44.0329 33.5706 47.2863Z" fill="#2C2C2C"/>
</svg>
